# xmcd CD database file
#
# Track frame offsets:
#	150
#	18832
#	38632
#	61835
#	76313
#	88165
#	106799
#	124708
#	144892
#	160819
#	176447
#	190358
#	210507
#
# Disc length: 3019 seconds
#
# Revision: 1
# Processed by: cddbd v1.5.2PL0 Copyright (c) Steve Scherf et al.
# Submitted via: CDex 1.51
#
DISCID=9a0bc90d
DTITLE=Martyna Jakubowicz - Te 30 urodziny
DYEAR=2008
DGENRE=Blues
TTITLE0=Spiewam lecz brak mi slow
TTITLE1=Miecy i kij
TTITLE2=Baby w Maksyku
TTITLE3=Przyjdz do mnie dwa
TTITLE4=Ardzuna i Kriszna
TTITLE5=Gdyby nie nasz fart and Loule el ness
TTITLE6=Zagle tuz nad ziemia
TTITLE7=Jesli chcesz z kogos kpic
TTITLE8=W domach z betonu nie ma wolnej milosci
TTITLE9=Trzech zlych malych chlopcow
TTITLE10=Mlode wino
TTITLE11=Chce ci dac troche wiary w cud and Kolysanka dla misiakow
TTITLE12=Zyczenia
EXTD=YEAR: 2008
EXTT0=
EXTT1=
EXTT2=
EXTT3=
EXTT4=
EXTT5=
EXTT6=
EXTT7=
EXTT8=
EXTT9=
EXTT10=
EXTT11=
EXTT12=
PLAYORDER=
